<?xml version="1.0" encoding="UTF-8" standalone="no"?>
<!-- Created with Inkscape (http://www.inkscape.org/) -->

<svg
   xmlns:dc="http://purl.org/dc/elements/1.1/"
   xmlns:cc="http://creativecommons.org/ns#"
   xmlns:rdf="http://www.w3.org/1999/02/22-rdf-syntax-ns#"
   xmlns:svg="http://www.w3.org/2000/svg"
   xmlns="http://www.w3.org/2000/svg"
   xmlns:sodipodi="http://sodipodi.sourceforge.net/DTD/sodipodi-0.dtd"
   xmlns:inkscape="http://www.inkscape.org/namespaces/inkscape"
   width="512"
   height="512"
   viewBox="0 0 511.99999 512.00001"
   id="svg2"
   version="1.1"
   inkscape:version="0.91 r13725"
   sodipodi:docname="blogwt-logo.svg"
   inkscape:export-filename="/home/billy1380/temp/blogwt-favicon.png"
   inkscape:export-xdpi="3.0928621"
   inkscape:export-ydpi="3.0928621">
  <defs
     id="defs4" />
  <sodipodi:namedview
     id="base"
     pagecolor="#ffffff"
     bordercolor="#666666"
     borderopacity="1.0"
     inkscape:pageopacity="0.0"
     inkscape:pageshadow="2"
     inkscape:zoom="0.62225397"
     inkscape:cx="81.085311"
     inkscape:cy="247.70997"
     inkscape:document-units="px"
     inkscape:current-layer="layer1"
     showgrid="false"
     inkscape:window-width="1855"
     inkscape:window-height="1176"
     inkscape:window-x="65"
     inkscape:window-y="24"
     inkscape:window-maximized="1"
     units="px" />
  <metadata
     id="metadata7">
    <rdf:RDF>
      <cc:Work
         rdf:about="">
        <dc:format>image/svg+xml</dc:format>
        <dc:type
           rdf:resource="http://purl.org/dc/dcmitype/StillImage" />
        <dc:title></dc:title>
      </cc:Work>
    </rdf:RDF>
  </metadata>
  <g
     inkscape:label="Layer 1"
     inkscape:groupmode="layer"
     id="layer1"
     transform="translate(0,-540.36216)">
    <path
       sodipodi:nodetypes="ccccccccccccccccccccc"
       inkscape:connector-curvature="0"
       id="path4199"
       d="m 912.54349,1083.9617 0,164.2989 -53.12794,49.7546 0,19.0492 53.12794,-52.1359 0,46.8293 -55.50912,54.5169 0,13.4931 55.50912,-55.7074 0,34.5265 -54.51695,54.7153 0,95.8411 -24.23678,27.0322 -615.41409,-516.4852 0.28535,-351.53673 -9.20125,11.11519 0,217.37627 -23.98429,-23.98428 0.31043,-193.39199 114.80372,-108.8404 z"
       style="opacity:0.568;fill:#555753;fill-rule:evenodd;stroke:none;stroke-width:1px;stroke-linecap:butt;stroke-linejoin:miter;stroke-opacity:1" />
    <circle
       style="opacity:1;fill:#f57900;fill-opacity:1;stroke:none;stroke-width:1.5;stroke-linecap:round;stroke-linejoin:round;stroke-miterlimit:4;stroke-dasharray:none;stroke-opacity:1"
       id="path4239"
       cx="175.16962"
       cy="812.91003"
       r="128.56488" />
    <path
       style="fill:#2e3436;fill-rule:evenodd;stroke:none;stroke-width:1px;stroke-linecap:butt;stroke-linejoin:miter;stroke-opacity:1"
       d="m 301.09799,570.49069 0,165.09262 -52.83031,49.75466 0,19.04915 52.83031,-52.13584 0,46.82921 -52.83031,54.51694 0,13.49311 52.83031,-55.70753 0,34.52661 -52.83031,54.71533 0,95.84112 -29.09829,23.85733 0,-352.10749 -9.20127,11.11519 0,217.37622 -23.98428,-23.98428 0.31042,-193.39194 z"
       id="path4138"
       inkscape:connector-curvature="0"
       sodipodi:nodetypes="ccccccccccccccccccc" />
    <path
       style="fill:#eeeeec;fill-rule:evenodd;stroke:none;stroke-width:1px;stroke-linecap:butt;stroke-linejoin:miter;stroke-opacity:1"
       d="m 301.09782,675.48318 -81.92797,74.93817 0,150.25413 29.09841,0 0,-0.0505 52.82956,-54.71524 0,-34.52669 -52.82956,55.70834 0,-13.49375 52.82956,-54.51694 0,-46.82906 -52.82956,52.13657 0,-19.04932 52.82956,-49.7549 0,-60.10037 z m -91.13026,83.3559 -23.83668,21.80221 -0.1475,92.08139 23.98418,23.98427 0,-137.86787 z"
       id="path4220"
       inkscape:connector-curvature="0" />
    <path
       style="fill:#3465a4;fill-rule:evenodd;stroke:none;stroke-width:1px;stroke-linecap:butt;stroke-linejoin:miter;stroke-opacity:1"
       d="m 248.26758,428.69727 c -9.69947,6.9116 -19.39819,15.7032 -29.09766,7.8125 l 0,24.09765 -237.802732,0 0,19.2832 237.802732,0 c 9.55525,-7.69201 19.45343,-15.87971 29.09766,-23.7871 z"
       transform="translate(0,540.36216)"
       id="path4215"
       inkscape:connector-curvature="0"
       sodipodi:nodetypes="cccccccc" />
    <path
       style="opacity:1;fill:#babdb6;fill-rule:evenodd;stroke:none;stroke-width:1px;stroke-linecap:butt;stroke-linejoin:miter;stroke-opacity:1"
       d="m 248.13945,642.82948 -29.76305,25.54567 0,287.94262 29.76305,-19.65715 0,-102.39884 52.76001,-55.02428 0,-26.19287 -52.76001,51.97452 z"
       id="path4201"
       inkscape:connector-curvature="0"
       sodipodi:nodetypes="ccccccccc" />
    <path
       style="fill:#729fcf;fill-rule:evenodd;stroke:none;stroke-width:1px;stroke-linecap:butt;stroke-linejoin:miter;stroke-opacity:1;opacity:0.414"
       d="M -18.632812 466.19922 L -18.632812 479.89062 L 219.16992 479.89062 C 224.69701 475.4413 230.3316 470.83006 235.97266 466.19922 L -18.632812 466.19922 z "
       transform="translate(0,540.36216)"
       id="path4234" />
  </g>
</svg>
