<?xml version="1.0" encoding="UTF-8" standalone="no"?>
<!-- Created with Inkscape (http://www.inkscape.org/) -->

<svg
   xmlns:dc="http://purl.org/dc/elements/1.1/"
   xmlns:cc="http://creativecommons.org/ns#"
   xmlns:rdf="http://www.w3.org/1999/02/22-rdf-syntax-ns#"
   xmlns:svg="http://www.w3.org/2000/svg"
   xmlns="http://www.w3.org/2000/svg"
   xmlns:sodipodi="http://sodipodi.sourceforge.net/DTD/sodipodi-0.dtd"
   xmlns:inkscape="http://www.inkscape.org/namespaces/inkscape"
   width="210mm"
   height="297mm"
   viewBox="0 0 744.09448819 1052.3622047"
   id="svg2"
   version="1.1"
   inkscape:version="0.91 r"
   sodipodi:docname="new-user.svg">
  <defs
     id="defs4" />
  <sodipodi:namedview
     id="base"
     pagecolor="#ffffff"
     bordercolor="#666666"
     borderopacity="1.0"
     inkscape:pageopacity="0.0"
     inkscape:pageshadow="2"
     inkscape:zoom="0.34637651"
     inkscape:cx="499.31328"
     inkscape:cy="342.06056"
     inkscape:document-units="px"
     inkscape:current-layer="layer1"
     showgrid="false"
     showguides="false"
     inkscape:window-width="1855"
     inkscape:window-height="1176"
     inkscape:window-x="65"
     inkscape:window-y="24"
     inkscape:window-maximized="1" />
  <metadata
     id="metadata7">
    <rdf:RDF>
      <cc:Work
         rdf:about="">
        <dc:format>image/svg+xml</dc:format>
        <dc:type
           rdf:resource="http://purl.org/dc/dcmitype/StillImage" />
        <dc:title></dc:title>
      </cc:Work>
    </rdf:RDF>
  </metadata>
  <g
     inkscape:label="Layer 1"
     inkscape:groupmode="layer"
     id="layer1">
    <g
       id="g4736"
       transform="translate(1411.7586,-733.30608)">
      <rect
         style="opacity:1;fill:#babdb6;fill-opacity:1;stroke:none;stroke-width:1;stroke-linecap:round;stroke-linejoin:round;stroke-miterlimit:4;stroke-dasharray:none;stroke-opacity:1"
         id="rect4321"
         width="114.28571"
         height="89.142998"
         x="296.59384"
         y="516.65344" />
      <rect
         y="516.65344"
         x="341.59384"
         height="89.142998"
         width="69.285713"
         id="rect4323"
         style="opacity:0.25;fill:#888a85;fill-opacity:1;stroke:none;stroke-width:1;stroke-linecap:round;stroke-linejoin:round;stroke-miterlimit:4;stroke-dasharray:none;stroke-opacity:1" />
      <rect
         style="opacity:1;fill:#babdb6;fill-opacity:1;stroke:none;stroke-width:1;stroke-linecap:round;stroke-linejoin:round;stroke-miterlimit:4;stroke-dasharray:none;stroke-opacity:1"
         id="rect4325"
         width="300"
         height="400"
         x="203.73666"
         y="138.93053"
         ry="100"
         rx="100" />
      <path
         style="opacity:0.5;fill:#888a85;fill-opacity:1;stroke:none;stroke-width:1;stroke-linecap:round;stroke-linejoin:round;stroke-miterlimit:4;stroke-dasharray:none;stroke-opacity:1"
         d="m 328.73668,475.29411 c 13.77291,3.35567 37.21634,3.06083 49.2425,0.75757 l 15.909,15.90887 c -24.0756,-4.62675 -51.4533,-6.37723 -80.303,0 z"
         id="path4327"
         inkscape:connector-curvature="0"
         sodipodi:nodetypes="ccccc" />
      <g
         id="g4329"
         transform="matrix(-1,0,0,1,720.25908,49.29544)">
        <ellipse
           style="opacity:1;fill:#babdb6;fill-opacity:1;stroke:none;stroke-width:1;stroke-linecap:round;stroke-linejoin:round;stroke-miterlimit:4;stroke-dasharray:none;stroke-opacity:1"
           id="ellipse4331"
           cx="219.40514"
           cy="319.39548"
           rx="32.728943"
           ry="46.871078" />
        <path
           style="opacity:0.25;fill:#888a85;fill-opacity:1;stroke:none;stroke-width:1;stroke-linecap:round;stroke-linejoin:round;stroke-miterlimit:4;stroke-dasharray:none;stroke-opacity:1"
           d="m 216.57617,297.7842 a 19.460397,19.680028 0 0 0 -17.77856,19.59229 19.460397,19.680028 0 0 0 17.77856,19.59557 l 0,-39.18786 z"
           id="path4333"
           inkscape:connector-curvature="0" />
      </g>
      <path
         style="opacity:0.25;fill:#888a85;fill-opacity:1;stroke:none;stroke-width:1;stroke-linecap:round;stroke-linejoin:round;stroke-miterlimit:4;stroke-dasharray:none;stroke-opacity:1"
         d="m 341.61498,138.93075 0,400 62.1211,0 c 55.4,0 100,-44.6 100,-100 l 0,-200 c 0,-55.4 -44.6,-100 -100,-100 l -62.1211,0 z"
         id="path4335"
         inkscape:connector-curvature="0" />
      <path
         style="opacity:0.5;fill:#888a85;fill-opacity:1;stroke:none;stroke-width:1;stroke-linecap:round;stroke-linejoin:round;stroke-miterlimit:4;stroke-dasharray:none;stroke-opacity:1"
         d="m 334.03978,408.54342 39.3939,0 -5.1429,12.20501 -28.5368,-0.57143 z"
         id="path4341"
         inkscape:connector-curvature="0"
         sodipodi:nodetypes="ccccc" />
      <rect
         y="539.28082"
         x="296.59384"
         height="42.271919"
         width="114.28571"
         id="rect4369"
         style="opacity:0.25;fill:#888a85;fill-opacity:1;stroke:none;stroke-width:1;stroke-linecap:round;stroke-linejoin:round;stroke-miterlimit:4;stroke-dasharray:none;stroke-opacity:1" />
      <g
         transform="translate(-12.929972,51.71981)"
         id="g4371">
        <ellipse
           ry="46.871078"
           rx="32.728943"
           cy="319.39548"
           cx="219.40514"
           id="ellipse4373"
           style="opacity:1;fill:#babdb6;fill-opacity:1;stroke:none;stroke-width:1;stroke-linecap:round;stroke-linejoin:round;stroke-miterlimit:4;stroke-dasharray:none;stroke-opacity:1" />
        <path
           inkscape:connector-curvature="0"
           id="path4375"
           d="m 216.57617,297.7842 a 19.460397,19.680028 0 0 0 -17.77856,19.59229 19.460397,19.680028 0 0 0 17.77856,19.59557 l 0,-39.18786 z"
           style="opacity:0.25;fill:#888a85;fill-opacity:1;stroke:none;stroke-width:1;stroke-linecap:round;stroke-linejoin:round;stroke-miterlimit:4;stroke-dasharray:none;stroke-opacity:1" />
      </g>
      <path
         style="opacity:0.25;fill:#888a85;fill-opacity:1;stroke:none;stroke-width:1;stroke-linecap:round;stroke-linejoin:round;stroke-miterlimit:4;stroke-dasharray:none;stroke-opacity:1"
         d="m 503.73608,322.03426 0,93.32032 a 32.728943,46.871078 0 0 0 29.8476,-46.66407 32.728943,46.871078 0 0 0 -29.8476,-46.65625 z"
         id="path4377"
         inkscape:connector-curvature="0" />
      <rect
         style="opacity:1;fill:#eeeeec;fill-opacity:1;stroke:none;stroke-width:1;stroke-linecap:round;stroke-linejoin:round;stroke-miterlimit:4;stroke-dasharray:none;stroke-opacity:1"
         id="rect4379"
         width="581.03979"
         height="260.2153"
         x="64.833099"
         y="590.9245"
         ry="100" />
      <path
         inkscape:connector-curvature="0"
         id="rect4605"
         d="m 340.78608,590.92473 0,260.21485 205.086,0 c 55.4,0 100,-44.6 100,-100 l 0,-60.21485 c 0,-55.4 -44.6,-100 -100,-100 l -205.086,0 z"
         style="opacity:0.25;fill:#d3d7cf;fill-opacity:1;stroke:none;stroke-width:1;stroke-linecap:round;stroke-linejoin:round;stroke-miterlimit:4;stroke-dasharray:none;stroke-opacity:1" />
      <g
         id="g4707">
        <path
           sodipodi:nodetypes="sscccsss"
           inkscape:connector-curvature="0"
           id="path4337"
           d="m 300.70668,123.77875 c -55.4,0 -104.5454,61.26667 -104.5454,116.66667 l 0,18.74024 c 89.2853,-13.78618 106.0601,-64.19484 106.0601,-64.19484 0,0 89.951,53.31284 228.7884,63.75775 l -16.6667,-38.00012 c -22.252,-50.73469 -58.2364,-96.9697 -113.6364,-96.9697 z"
           style="fill:#555753;fill-rule:evenodd;stroke:none;stroke-width:1px;stroke-linecap:butt;stroke-linejoin:miter;stroke-opacity:1" />
        <path
           inkscape:connector-curvature="0"
           id="path4339"
           d="m 343.13058,123.7784 0,90.79297 c 39.2727,16.34045 104.8131,37.92859 187.8789,44.17774 l -16.666,-38 c -22.252,-50.73469 -58.2367,-96.97071 -113.6367,-96.97071 l -57.5762,0 z"
           style="fill:#2e3436;fill-rule:evenodd;stroke:none;stroke-width:1px;stroke-linecap:butt;stroke-linejoin:miter;stroke-opacity:1" />
        <path
           style="opacity:1;fill:#ffffff;fill-opacity:1;stroke:none;stroke-width:1;stroke-linecap:round;stroke-linejoin:round;stroke-miterlimit:4;stroke-dasharray:none;stroke-opacity:1"
           id="path4629"
           sodipodi:type="arc"
           sodipodi:cx="-337.47559"
           sodipodi:cy="69.30687"
           sodipodi:rx="61.714287"
           sodipodi:ry="61.714287"
           sodipodi:start="5.7316613"
           sodipodi:end="0"
           d="m -284.91186,36.969455 a 61.714287,61.714287 0 0 1 9.15056,32.337415 l -61.71429,0 z"
           transform="matrix(-0.90891188,-0.41698825,-0.41698825,0.90891188,0,0)" />
      </g>
      <g
         id="g4689">
        <g
           id="g4351"
           transform="translate(-12.929972,102.45564)">
          <circle
             style="opacity:1;fill:#2e3436;fill-opacity:1;stroke:none;stroke-width:1;stroke-linecap:round;stroke-linejoin:round;stroke-miterlimit:4;stroke-dasharray:none;stroke-opacity:1"
             id="circle4353"
             cx="312.12122"
             cy="249.1198"
             r="20.454546" />
          <rect
             style="opacity:1;fill:#555753;fill-opacity:1;stroke:none;stroke-width:1;stroke-linecap:round;stroke-linejoin:round;stroke-miterlimit:4;stroke-dasharray:none;stroke-opacity:1"
             id="rect4355"
             width="78.78788"
             height="4.5452275"
             x="239.35474"
             y="260.25165"
             rx="0"
             ry="0"
             transform="matrix(0.99405173,-0.10890892,0.10890892,0.99405173,0,0)" />
        </g>
        <path
           sodipodi:nodetypes="ccccc"
           inkscape:connector-curvature="0"
           id="path4357"
           d="m 261.68072,305.83102 56.83492,0.78468 10.93698,15.06288 -75.69207,-8.21327 z"
           inkscape:transform-center-y="-3.1105114"
           inkscape:transform-center-x="27.790156"
           style="opacity:1;fill:#555753;fill-opacity:1;stroke:none;stroke-width:1;stroke-linecap:round;stroke-linejoin:round;stroke-miterlimit:4;stroke-dasharray:none;stroke-opacity:1" />
        <g
           id="g4679"
           transform="matrix(0.55348343,0.83286019,-0.83286019,0.55348343,423.02702,-91.750733)"
           inkscape:transform-center-x="4.2857143"
           inkscape:transform-center-y="6.5714286">
          <circle
             r="5.2857141"
             cy="351.64792"
             cx="289.28571"
             id="path4675"
             style="opacity:1;fill:#ffffff;fill-opacity:1;stroke:none;stroke-width:1;stroke-linecap:round;stroke-linejoin:round;stroke-miterlimit:4;stroke-dasharray:none;stroke-opacity:1" />
          <circle
             r="2.5714285"
             cy="348.07648"
             cx="298"
             id="path4677"
             style="opacity:1;fill:#ffffff;fill-opacity:1;stroke:none;stroke-width:1;stroke-linecap:round;stroke-linejoin:round;stroke-miterlimit:4;stroke-dasharray:none;stroke-opacity:1" />
        </g>
      </g>
      <g
         id="g4698">
        <g
           id="g4361"
           transform="matrix(-1,0,0,1,716.71942,102.45564)">
          <circle
             r="20.454546"
             cy="249.1198"
             cx="312.12122"
             id="circle4363"
             style="opacity:1;fill:#2e3436;fill-opacity:1;stroke:none;stroke-width:1;stroke-linecap:round;stroke-linejoin:round;stroke-miterlimit:4;stroke-dasharray:none;stroke-opacity:1" />
          <rect
             transform="matrix(0.99405173,-0.10890892,0.10890892,0.99405173,0,0)"
             ry="0"
             rx="0"
             y="260.25165"
             x="239.35474"
             height="4.5452275"
             width="78.78788"
             id="rect4365"
             style="opacity:1;fill:#555753;fill-opacity:1;stroke:none;stroke-width:1;stroke-linecap:round;stroke-linejoin:round;stroke-miterlimit:4;stroke-dasharray:none;stroke-opacity:1" />
        </g>
        <path
           style="opacity:1;fill:#555753;fill-opacity:1;stroke:none;stroke-width:1;stroke-linecap:round;stroke-linejoin:round;stroke-miterlimit:4;stroke-dasharray:none;stroke-opacity:1"
           inkscape:transform-center-x="27.790156"
           inkscape:transform-center-y="-3.1105114"
           d="m 442.10872,305.83102 -56.83491,0.78468 -10.93698,15.06288 75.69207,-8.21327 z"
           id="path4367"
           inkscape:connector-curvature="0"
           sodipodi:nodetypes="ccccc" />
        <g
           inkscape:transform-center-y="6.5714286"
           inkscape:transform-center-x="4.2857143"
           transform="matrix(0.55348343,0.83286019,-0.83286019,0.55348343,528.48695,-91.346672)"
           id="g4683">
          <circle
             style="opacity:1;fill:#ffffff;fill-opacity:1;stroke:none;stroke-width:1;stroke-linecap:round;stroke-linejoin:round;stroke-miterlimit:4;stroke-dasharray:none;stroke-opacity:1"
             id="circle4685"
             cx="289.28571"
             cy="351.64792"
             r="5.2857141" />
          <circle
             style="opacity:1;fill:#ffffff;fill-opacity:1;stroke:none;stroke-width:1;stroke-linecap:round;stroke-linejoin:round;stroke-miterlimit:4;stroke-dasharray:none;stroke-opacity:1"
             id="circle4687"
             cx="298"
             cy="348.07648"
             r="2.5714285" />
        </g>
      </g>
      <g
         id="g4731">
        <path
           style="opacity:1;fill:#555753;fill-opacity:1;stroke:none;stroke-width:1;stroke-linecap:round;stroke-linejoin:round;stroke-miterlimit:4;stroke-dasharray:none;stroke-opacity:1"
           d="m 295.96088,462.41532 c 44.0714,6.94385 83.559,7.47028 117.5314,0.27547 l 26.6081,-19.21509 -172.7273,0 z"
           id="path4343"
           inkscape:connector-curvature="0"
           sodipodi:nodetypes="ccccc" />
        <path
           inkscape:connector-curvature="0"
           id="path4345"
           d="m 295.40368,443.47567 0,4.54492 c 44.9925,7.32427 81.6684,4.66948 116.666,0 l 0,-4.54492 -116.666,0 z"
           style="opacity:1;fill:#eeeeec;fill-opacity:1;stroke:none;stroke-width:1;stroke-linecap:round;stroke-linejoin:round;stroke-miterlimit:4;stroke-dasharray:none;stroke-opacity:1" />
        <ellipse
           style="opacity:1;fill:#ffffff;fill-opacity:1;stroke:none;stroke-width:1;stroke-linecap:round;stroke-linejoin:round;stroke-miterlimit:4;stroke-dasharray:none;stroke-opacity:1"
           id="path4714"
           cx="320.14288"
           cy="469.36221"
           rx="2.7142856"
           ry="1.2857143" />
      </g>
      <ellipse
         transform="matrix(0.66787473,-0.7442737,0.7442737,0.66787473,0,0)"
         style="opacity:1;fill:#ffffff;fill-opacity:1;stroke:none;stroke-width:1;stroke-linecap:round;stroke-linejoin:round;stroke-miterlimit:4;stroke-dasharray:none;stroke-opacity:1"
         id="ellipse4723"
         cx="-124.3925"
         cy="364.79486"
         rx="2.7142856"
         ry="1.2857143" />
    </g>
    <g
       id="g4910"
       transform="translate(2.512771e-7,98.159082)"
       inkscape:export-filename="/home/billy1380/temp/new-user.png"
       inkscape:export-xdpi="7.899641"
       inkscape:export-ydpi="7.899641">
      <path
         id="path4904"
         d="m 190.81641,533.18359 c -55.4,0 -100.000004,44.6 -100.000004,100 l 0,44.81055 A 409.95853,409.95853 0 0 0 375.31445,793.39844 409.95853,409.95853 0 0 0 671.85547,665.80469 l 0,-32.6211 c 0,-55.4 -44.6,-100 -100,-100 l -381.03906,0 z"
         style="opacity:1;fill:#eeeeec;fill-opacity:1;stroke:none;stroke-width:1;stroke-linecap:round;stroke-linejoin:round;stroke-miterlimit:4;stroke-dasharray:none;stroke-opacity:1"
         inkscape:connector-curvature="0" />
      <path
         id="circle4906"
         d="m 366.76953,533.18359 0,259.78711 a 409.95853,409.95853 0 0 0 8.54492,0.42774 409.95853,409.95853 0 0 0 296.54102,-127.59375 l 0,-32.6211 c 0,-55.4 -44.6,-100 -100,-100 l -205.08594,0 z"
         style="opacity:0.25;fill:#d3d7cf;fill-opacity:1;stroke:none;stroke-width:1;stroke-linecap:round;stroke-linejoin:round;stroke-miterlimit:4;stroke-dasharray:none;stroke-opacity:1"
         inkscape:connector-curvature="0" />
      <rect
         y="458.91281"
         x="322.57718"
         height="89.142998"
         width="114.28571"
         id="rect4781"
         style="opacity:1;fill:#babdb6;fill-opacity:1;stroke:none;stroke-width:1;stroke-linecap:round;stroke-linejoin:round;stroke-miterlimit:4;stroke-dasharray:none;stroke-opacity:1" />
      <rect
         style="opacity:0.25;fill:#888a85;fill-opacity:1;stroke:none;stroke-width:1;stroke-linecap:round;stroke-linejoin:round;stroke-miterlimit:4;stroke-dasharray:none;stroke-opacity:1"
         id="rect4783"
         width="69.285713"
         height="89.142998"
         x="367.57718"
         y="458.91281" />
      <rect
         rx="100"
         ry="100"
         y="81.189888"
         x="229.71999"
         height="400"
         width="300"
         id="rect4785"
         style="opacity:1;fill:#babdb6;fill-opacity:1;stroke:none;stroke-width:1;stroke-linecap:round;stroke-linejoin:round;stroke-miterlimit:4;stroke-dasharray:none;stroke-opacity:1" />
      <path
         sodipodi:nodetypes="ccccc"
         inkscape:connector-curvature="0"
         id="path4787"
         d="m 354.72001,417.55347 c 13.77291,3.35567 37.21634,3.06083 49.2425,0.75757 l 15.909,15.90887 c -24.0756,-4.62675 -51.4533,-6.37723 -80.303,0 z"
         style="opacity:0.5;fill:#888a85;fill-opacity:1;stroke:none;stroke-width:1;stroke-linecap:round;stroke-linejoin:round;stroke-miterlimit:4;stroke-dasharray:none;stroke-opacity:1" />
      <g
         transform="matrix(-1,0,0,1,746.24241,-8.445195)"
         id="g4789">
        <ellipse
           ry="46.871078"
           rx="32.728943"
           cy="319.39548"
           cx="219.40514"
           id="ellipse4791"
           style="opacity:1;fill:#babdb6;fill-opacity:1;stroke:none;stroke-width:1;stroke-linecap:round;stroke-linejoin:round;stroke-miterlimit:4;stroke-dasharray:none;stroke-opacity:1" />
        <path
           inkscape:connector-curvature="0"
           id="path4793"
           d="m 216.57617,297.7842 a 19.460397,19.680028 0 0 0 -17.77856,19.59229 19.460397,19.680028 0 0 0 17.77856,19.59557 l 0,-39.18786 z"
           style="opacity:0.25;fill:#888a85;fill-opacity:1;stroke:none;stroke-width:1;stroke-linecap:round;stroke-linejoin:round;stroke-miterlimit:4;stroke-dasharray:none;stroke-opacity:1" />
      </g>
      <path
         inkscape:connector-curvature="0"
         id="path4795"
         d="m 367.59831,81.190115 0,399.999995 62.1211,0 c 55.4,0 100,-44.6 100,-100 l 0,-200 c 0,-55.4 -44.6,-99.999995 -100,-99.999995 l -62.1211,0 z"
         style="opacity:0.25;fill:#888a85;fill-opacity:1;stroke:none;stroke-width:1;stroke-linecap:round;stroke-linejoin:round;stroke-miterlimit:4;stroke-dasharray:none;stroke-opacity:1" />
      <path
         sodipodi:nodetypes="ccccc"
         inkscape:connector-curvature="0"
         id="path4797"
         d="m 360.02311,350.80279 39.3939,0 -5.1429,12.20501 -28.5368,-0.57143 z"
         style="opacity:0.5;fill:#888a85;fill-opacity:1;stroke:none;stroke-width:1;stroke-linecap:round;stroke-linejoin:round;stroke-miterlimit:4;stroke-dasharray:none;stroke-opacity:1" />
      <rect
         style="opacity:0.25;fill:#888a85;fill-opacity:1;stroke:none;stroke-width:1;stroke-linecap:round;stroke-linejoin:round;stroke-miterlimit:4;stroke-dasharray:none;stroke-opacity:1"
         id="rect4799"
         width="114.28571"
         height="42.271919"
         x="322.57718"
         y="481.54019" />
      <g
         id="g4801"
         transform="translate(13.053356,-6.020825)">
        <ellipse
           style="opacity:1;fill:#babdb6;fill-opacity:1;stroke:none;stroke-width:1;stroke-linecap:round;stroke-linejoin:round;stroke-miterlimit:4;stroke-dasharray:none;stroke-opacity:1"
           id="ellipse4803"
           cx="219.40514"
           cy="319.39548"
           rx="32.728943"
           ry="46.871078" />
        <path
           style="opacity:0.25;fill:#888a85;fill-opacity:1;stroke:none;stroke-width:1;stroke-linecap:round;stroke-linejoin:round;stroke-miterlimit:4;stroke-dasharray:none;stroke-opacity:1"
           d="m 216.57617,297.7842 a 19.460397,19.680028 0 0 0 -17.77856,19.59229 19.460397,19.680028 0 0 0 17.77856,19.59557 l 0,-39.18786 z"
           id="path4805"
           inkscape:connector-curvature="0" />
      </g>
      <path
         inkscape:connector-curvature="0"
         id="path4807"
         d="m 529.71941,264.29363 0,93.32031 a 32.728943,46.871078 0 0 0 29.8476,-46.66406 32.728943,46.871078 0 0 0 -29.8476,-46.65625 z"
         style="opacity:0.25;fill:#888a85;fill-opacity:1;stroke:none;stroke-width:1;stroke-linecap:round;stroke-linejoin:round;stroke-miterlimit:4;stroke-dasharray:none;stroke-opacity:1" />
      <g
         transform="translate(25.983328,-57.740635)"
         id="g4813">
        <path
           style="fill:#555753;fill-rule:evenodd;stroke:none;stroke-width:1px;stroke-linecap:butt;stroke-linejoin:miter;stroke-opacity:1"
           d="m 300.70668,123.77875 c -55.4,0 -104.5454,61.26667 -104.5454,116.66667 l 0,18.74024 c 89.2853,-13.78618 106.0601,-64.19484 106.0601,-64.19484 0,0 89.951,53.31284 228.7884,63.75775 l -16.6667,-38.00012 c -22.252,-50.73469 -58.2364,-96.9697 -113.6364,-96.9697 z"
           id="path4815"
           inkscape:connector-curvature="0"
           sodipodi:nodetypes="sscccsss" />
        <path
           style="fill:#2e3436;fill-rule:evenodd;stroke:none;stroke-width:1px;stroke-linecap:butt;stroke-linejoin:miter;stroke-opacity:1"
           d="m 343.13058,123.7784 0,90.79297 c 39.2727,16.34045 104.8131,37.92859 187.8789,44.17774 l -16.666,-38 c -22.252,-50.73469 -58.2367,-96.97071 -113.6367,-96.97071 l -57.5762,0 z"
           id="path4817"
           inkscape:connector-curvature="0" />
        <path
           transform="matrix(-0.90891188,-0.41698825,-0.41698825,0.90891188,0,0)"
           d="m -284.91186,36.969455 a 61.714287,61.714287 0 0 1 9.15056,32.337415 l -61.71429,0 z"
           sodipodi:end="0"
           sodipodi:start="5.7316613"
           sodipodi:ry="61.714287"
           sodipodi:rx="61.714287"
           sodipodi:cy="69.30687"
           sodipodi:cx="-337.47559"
           sodipodi:type="arc"
           id="path4819"
           style="opacity:1;fill:#ffffff;fill-opacity:1;stroke:none;stroke-width:1;stroke-linecap:round;stroke-linejoin:round;stroke-miterlimit:4;stroke-dasharray:none;stroke-opacity:1" />
      </g>
      <g
         transform="translate(25.983328,-57.740635)"
         id="g4821">
        <g
           transform="translate(-12.929972,102.45564)"
           id="g4823">
          <circle
             r="20.454546"
             cy="249.1198"
             cx="312.12122"
             id="circle4825"
             style="opacity:1;fill:#2e3436;fill-opacity:1;stroke:none;stroke-width:1;stroke-linecap:round;stroke-linejoin:round;stroke-miterlimit:4;stroke-dasharray:none;stroke-opacity:1" />
          <rect
             transform="matrix(0.99405173,-0.10890892,0.10890892,0.99405173,0,0)"
             ry="0"
             rx="0"
             y="260.25165"
             x="239.35474"
             height="4.5452275"
             width="78.78788"
             id="rect4827"
             style="opacity:1;fill:#555753;fill-opacity:1;stroke:none;stroke-width:1;stroke-linecap:round;stroke-linejoin:round;stroke-miterlimit:4;stroke-dasharray:none;stroke-opacity:1" />
        </g>
        <path
           style="opacity:1;fill:#555753;fill-opacity:1;stroke:none;stroke-width:1;stroke-linecap:round;stroke-linejoin:round;stroke-miterlimit:4;stroke-dasharray:none;stroke-opacity:1"
           inkscape:transform-center-x="27.790156"
           inkscape:transform-center-y="-3.1105114"
           d="m 261.68072,305.83102 56.83492,0.78468 10.93698,15.06288 -75.69207,-8.21327 z"
           id="path4829"
           inkscape:connector-curvature="0"
           sodipodi:nodetypes="ccccc" />
        <g
           inkscape:transform-center-y="6.5714286"
           inkscape:transform-center-x="4.2857143"
           transform="matrix(0.55348343,0.83286019,-0.83286019,0.55348343,423.02702,-91.750733)"
           id="g4831">
          <circle
             style="opacity:1;fill:#ffffff;fill-opacity:1;stroke:none;stroke-width:1;stroke-linecap:round;stroke-linejoin:round;stroke-miterlimit:4;stroke-dasharray:none;stroke-opacity:1"
             id="circle4833"
             cx="289.28571"
             cy="351.64792"
             r="5.2857141" />
          <circle
             style="opacity:1;fill:#ffffff;fill-opacity:1;stroke:none;stroke-width:1;stroke-linecap:round;stroke-linejoin:round;stroke-miterlimit:4;stroke-dasharray:none;stroke-opacity:1"
             id="circle4835"
             cx="298"
             cy="348.07648"
             r="2.5714285" />
        </g>
      </g>
      <g
         transform="translate(25.983328,-57.740635)"
         id="g4837">
        <g
           transform="matrix(-1,0,0,1,716.71942,102.45564)"
           id="g4839">
          <circle
             style="opacity:1;fill:#2e3436;fill-opacity:1;stroke:none;stroke-width:1;stroke-linecap:round;stroke-linejoin:round;stroke-miterlimit:4;stroke-dasharray:none;stroke-opacity:1"
             id="circle4841"
             cx="312.12122"
             cy="249.1198"
             r="20.454546" />
          <rect
             style="opacity:1;fill:#555753;fill-opacity:1;stroke:none;stroke-width:1;stroke-linecap:round;stroke-linejoin:round;stroke-miterlimit:4;stroke-dasharray:none;stroke-opacity:1"
             id="rect4843"
             width="78.78788"
             height="4.5452275"
             x="239.35474"
             y="260.25165"
             rx="0"
             ry="0"
             transform="matrix(0.99405173,-0.10890892,0.10890892,0.99405173,0,0)" />
        </g>
        <path
           sodipodi:nodetypes="ccccc"
           inkscape:connector-curvature="0"
           id="path4845"
           d="m 442.10872,305.83102 -56.83491,0.78468 -10.93698,15.06288 75.69207,-8.21327 z"
           inkscape:transform-center-y="-3.1105114"
           inkscape:transform-center-x="27.790156"
           style="opacity:1;fill:#555753;fill-opacity:1;stroke:none;stroke-width:1;stroke-linecap:round;stroke-linejoin:round;stroke-miterlimit:4;stroke-dasharray:none;stroke-opacity:1" />
        <g
           id="g4847"
           transform="matrix(0.55348343,0.83286019,-0.83286019,0.55348343,528.48695,-91.346672)"
           inkscape:transform-center-x="4.2857143"
           inkscape:transform-center-y="6.5714286">
          <circle
             r="5.2857141"
             cy="351.64792"
             cx="289.28571"
             id="circle4849"
             style="opacity:1;fill:#ffffff;fill-opacity:1;stroke:none;stroke-width:1;stroke-linecap:round;stroke-linejoin:round;stroke-miterlimit:4;stroke-dasharray:none;stroke-opacity:1" />
          <circle
             r="2.5714285"
             cy="348.07648"
             cx="298"
             id="circle4851"
             style="opacity:1;fill:#ffffff;fill-opacity:1;stroke:none;stroke-width:1;stroke-linecap:round;stroke-linejoin:round;stroke-miterlimit:4;stroke-dasharray:none;stroke-opacity:1" />
        </g>
      </g>
      <g
         transform="translate(25.983328,-57.740635)"
         id="g4853">
        <path
           sodipodi:nodetypes="ccccc"
           inkscape:connector-curvature="0"
           id="path4855"
           d="m 295.96088,462.41532 c 44.0714,6.94385 83.559,7.47028 117.5314,0.27547 l 26.6081,-19.21509 -172.7273,0 z"
           style="opacity:1;fill:#555753;fill-opacity:1;stroke:none;stroke-width:1;stroke-linecap:round;stroke-linejoin:round;stroke-miterlimit:4;stroke-dasharray:none;stroke-opacity:1" />
        <path
           style="opacity:1;fill:#eeeeec;fill-opacity:1;stroke:none;stroke-width:1;stroke-linecap:round;stroke-linejoin:round;stroke-miterlimit:4;stroke-dasharray:none;stroke-opacity:1"
           d="m 295.40368,443.47567 0,4.54492 c 44.9925,7.32427 81.6684,4.66948 116.666,0 l 0,-4.54492 -116.666,0 z"
           id="path4857"
           inkscape:connector-curvature="0" />
        <ellipse
           ry="1.2857143"
           rx="2.7142856"
           cy="469.36221"
           cx="320.14288"
           id="ellipse4859"
           style="opacity:1;fill:#ffffff;fill-opacity:1;stroke:none;stroke-width:1;stroke-linecap:round;stroke-linejoin:round;stroke-miterlimit:4;stroke-dasharray:none;stroke-opacity:1" />
      </g>
      <ellipse
         ry="1.2857143"
         rx="2.7142856"
         cy="345.57007"
         cx="-64.064056"
         id="ellipse4861"
         style="opacity:1;fill:#ffffff;fill-opacity:1;stroke:none;stroke-width:1;stroke-linecap:round;stroke-linejoin:round;stroke-miterlimit:4;stroke-dasharray:none;stroke-opacity:1"
         transform="matrix(0.66787473,-0.7442737,0.7442737,0.66787473,0,0)" />
    </g>
  </g>
</svg>
